<?xml version="1.0" encoding="UTF-8" standalone="no"?>
<!DOCTYPE svg PUBLIC "-//W3C//DTD SVG 1.1//EN" "http://www.w3.org/Graphics/SVG/1.1/DTD/svg11.dtd">
<svg width="100%" height="100%" viewBox="0 0 181 181" version="1.1" xmlns="http://www.w3.org/2000/svg" xmlns:xlink="http://www.w3.org/1999/xlink" xml:space="preserve" xmlns:serif="http://www.serif.com/" style="fill-rule:evenodd;clip-rule:evenodd;stroke-linejoin:round;stroke-miterlimit:1.41421;">
    <g transform="matrix(1,0,0,1,-700.163,-1451.91)">
        <g id="Cog-Red" transform="matrix(1,0,0,1,17.2685,241.973)">
            <rect x="682.895" y="1209.94" width="180.113" height="180.112" style="fill:none;"/>
            <clipPath id="_clip1">
                <rect x="682.895" y="1209.94" width="180.113" height="180.112"/>
            </clipPath>
            <g clip-path="url(#_clip1)">
                <g transform="matrix(0.916391,0,0,0.916391,41.0114,343.19)">
                    <path d="M801.699,945.83C805.071,945.843 808.53,945.856 811.613,946.908C817.922,949.061 822.563,955.281 822.734,962.077L822.735,970.956C823.129,971.086 823.522,971.22 823.915,971.356C827.146,972.488 830.299,973.823 833.356,975.357C833.775,974.91 834.195,974.465 834.618,974.022C839.275,969.181 845.513,964.581 852.842,965.97C854.257,966.238 855.637,966.695 856.934,967.322C858.655,968.154 860.186,969.31 861.574,970.664C864.099,973.128 865.4,974.255 867.409,976.172C870.323,978.973 873.385,981.812 875.22,985.335C878.352,991.344 877.293,999.243 872.521,1004.25L867.41,1009.36C869.116,1012.76 870.587,1016.29 871.799,1019.91C871.799,1019.91 881.847,1018.18 888.769,1022.34C893.95,1025.45 896.646,1031.48 896.758,1037.63C896.899,1044.01 897.918,1050.62 896.013,1056.65C893.965,1063.12 887.62,1067.94 880.731,1068.11L871.855,1068.11C871.724,1068.5 871.59,1068.9 871.453,1069.29C870.32,1072.53 868.985,1075.67 867.454,1078.73C867.905,1079.15 868.354,1079.58 868.801,1080C873.641,1084.66 878.232,1090.88 876.84,1098.22C876.263,1101.25 874.806,1104.1 872.692,1106.39C871.842,1107.28 871.783,1107.32 871.439,1107.68C867.074,1112.24 863.165,1117.55 857.632,1120.51C851.602,1123.73 843.613,1122.7 838.559,1117.89L833.446,1112.78C833.102,1112.96 832.757,1113.13 832.411,1113.3C829.318,1114.79 826.143,1116.09 822.896,1117.17C822.896,1117.17 824.411,1129.82 818.727,1136.54C815.883,1139.91 811.564,1141.9 807.119,1142.1C807.119,1142.1 802.191,1142.24 798.255,1142.33C793.341,1142.42 788.214,1142.59 783.952,1140.49C778.58,1137.84 774.855,1132.17 774.703,1126.11L774.702,1117.23C774.345,1117.12 773.99,1116.99 773.634,1116.87C770.384,1115.74 767.203,1114.4 764.126,1112.86C764.126,1112.86 758.624,1119.07 753.46,1121.26C747.856,1123.64 741.01,1122.32 736.415,1118.06C736.045,1117.7 736.425,1118.06 735.132,1116.81C730.53,1112.4 725.124,1108.44 722.217,1102.84C719.088,1096.82 720.178,1088.92 724.914,1083.93L730.027,1078.82C728.313,1075.41 726.847,1071.89 725.637,1068.27C725.637,1068.27 717.148,1069.19 711.136,1066.96C704.663,1064.56 700.813,1057.91 700.679,1050.55C700.541,1044.24 699.546,1037.72 701.369,1031.72C703.354,1025.18 709.717,1020.25 716.702,1020.08L725.583,1020.08C725.713,1019.68 725.847,1019.29 725.983,1018.89C727.113,1015.67 728.442,1012.53 729.968,1009.49C725.955,1005.82 721.943,1001.84 720.756,996.658C719.546,991.37 721.159,985.555 724.908,981.626C729.298,977.187 732.892,972.428 738.234,968.634C744.343,964.295 753.47,965.018 758.994,970.402L763.991,975.4C767.403,973.688 770.933,972.216 774.553,971.006C774.198,964.767 773.946,958.215 777.632,953.018C780.887,948.429 786.52,946.157 792.26,946.052C795.408,945.984 798.569,945.829 801.699,945.83ZM730.804,1057.32C734.42,1058.32 734.407,1059.66 735.454,1063.14C736.938,1068 738.971,1072.7 741.49,1077.09C741.49,1077.09 742.774,1080.52 741.357,1082.74C741.072,1083.18 740.966,1083.27 740.615,1083.66C737.98,1086.3 735.278,1088.87 732.712,1091.57C728.029,1096.62 738.173,1105.42 744.179,1110.36C747.962,1113.4 753.044,1108.43 758.656,1102.69C762.617,1098.67 768.807,1103.34 774.669,1105.63C776.932,1106.52 779.243,1107.27 781.587,1107.91C781.587,1107.91 785.421,1109.64 785.613,1113.17C785.614,1117.46 785.456,1121.76 785.617,1126.05C785.955,1132.91 799.253,1131.95 807.027,1131.17C812.564,1130.55 811.956,1121.24 811.833,1114.32C811.812,1112.72 811.808,1112.65 811.95,1112C812.859,1107.85 818.94,1107.22 823.952,1105.14C826.618,1104.04 829.208,1102.76 831.718,1101.32C831.718,1101.32 835.659,1099.84 838.289,1102.19C840.924,1104.83 843.493,1107.53 846.194,1110.1C851.269,1114.81 859.887,1104.91 864.999,1098.61C867.997,1094.83 863.137,1089.79 857.547,1084.38C856.678,1083.53 856.88,1083.99 856.086,1082.75C853.592,1078.85 858.09,1073.66 860.275,1068.07C861.151,1065.83 861.902,1063.54 862.534,1061.22C862.534,1061.22 864.274,1057.39 867.797,1057.2C872.073,1057.2 876.349,1057.3 880.624,1057.19C887.484,1056.94 886.701,1043.74 885.794,1035.78C885.725,1035.21 885.566,1034.66 885.328,1034.15C883.664,1030.56 878.397,1030.5 874.455,1030.7C872.335,1030.81 870.216,1030.96 868.094,1030.99C868.094,1030.99 866.954,1031 866.058,1030.7C862.659,1029.56 862.041,1024.81 860.603,1020.97C859.349,1017.63 857.83,1014.39 856.059,1011.29C856.059,1011.29 855.508,1010.34 855.328,1009.44C854.991,1007.74 855.036,1006.51 856.822,1004.52C859.457,1001.89 862.157,999.313 864.727,996.614C868.018,993.067 863.598,987.588 859.11,983.337C855.875,980.29 852.96,976.181 849.346,976.628C842.271,977.503 838.702,990.861 831.568,986.776C831.351,986.652 831.133,986.53 830.915,986.408C826.138,983.762 821.098,981.71 815.843,980.276C815.843,980.276 812.52,978.761 811.952,976.19C811.838,975.674 811.852,975.538 811.824,975.013C811.823,970.738 811.93,966.462 811.822,962.188C811.577,955.538 798.855,956.067 790.41,957.015C786.081,957.546 785.11,963.63 785.331,968.285C785.603,973.533 786.48,978.879 780.647,980.539C775.444,982.045 770.438,984.158 765.719,986.863C765.719,986.863 762.294,988.147 760.072,986.73C759.626,986.445 759.54,986.339 759.148,985.988C754.734,981.573 750.58,975.043 745.647,976.938C744.386,977.422 743.466,978.494 742.482,979.466C739.218,982.705 735.968,985.959 732.735,989.229C730.834,991.221 730.87,994.399 732.786,996.853C734.967,999.646 737.867,1001.81 740.422,1004.33C740.422,1004.33 741.228,1005.12 741.645,1005.96C742.668,1008.02 742.005,1010.09 740.551,1012.78C738.147,1017.28 736.249,1022.03 734.903,1026.97C734.903,1026.97 733.388,1030.29 730.817,1030.86C730.301,1030.97 730.165,1030.96 729.64,1030.99C725.366,1030.99 721.091,1030.88 716.818,1030.99C709.924,1031.25 710.888,1044.72 711.638,1052.38C712.137,1056.91 718.596,1057.57 723.181,1057.4C725.814,1057.31 729.364,1057.19 729.621,1057.2C730.018,1057.21 730.412,1057.26 730.804,1057.32ZM798.95,1008.1C815.506,1008.25 831.075,1021.1 834.113,1037.51C837.898,1057.94 821.101,1080.09 798.719,1080.09C781.623,1080.09 765.484,1066.32 763.071,1049.12C760.331,1029.58 775.893,1009.21 796.871,1008.14C797.409,1008.11 797.948,1008.1 798.487,1008.1C798.642,1008.1 798.796,1008.1 798.95,1008.1ZM798.556,1019.01C787.121,1019.12 776.441,1027.82 774.143,1039.04C771.822,1050.37 778.475,1062.92 789.244,1067.33C802.588,1072.78 819.914,1064.23 823.197,1049.61C826.446,1035.13 814.681,1018.96 798.556,1019.01Z" style="fill:rgb(177,177,177);fill-rule:nonzero;"/>
                </g>
                <g transform="matrix(0.916391,0,0,0.916391,41.0114,343.19)">
                    <path d="M801.699,945.83C805.071,945.843 808.53,945.856 811.613,946.908C817.922,949.061 822.563,955.281 822.734,962.077L822.735,970.956C823.129,971.086 823.522,971.22 823.915,971.356C827.146,972.488 830.299,973.823 833.356,975.357C833.775,974.91 834.195,974.465 834.618,974.022C839.275,969.181 845.513,964.581 852.842,965.97C854.257,966.238 855.637,966.695 856.934,967.322C858.655,968.154 860.186,969.31 861.574,970.664C864.099,973.128 865.4,974.255 867.409,976.172C870.323,978.973 873.385,981.812 875.22,985.335C878.352,991.344 877.293,999.243 872.521,1004.25L867.41,1009.36C869.116,1012.76 870.587,1016.29 871.799,1019.91C871.799,1019.91 881.847,1018.18 888.769,1022.34C893.95,1025.45 896.646,1031.48 896.758,1037.63C896.899,1044.01 897.918,1050.62 896.013,1056.65C893.965,1063.12 887.62,1067.94 880.731,1068.11L871.855,1068.11C871.724,1068.5 871.59,1068.9 871.453,1069.29C870.32,1072.53 868.985,1075.67 867.454,1078.73C867.905,1079.15 868.354,1079.58 868.801,1080C873.641,1084.66 878.232,1090.88 876.84,1098.22C876.263,1101.25 874.806,1104.1 872.692,1106.39C871.842,1107.28 871.783,1107.32 871.439,1107.68C867.074,1112.24 863.165,1117.55 857.632,1120.51C851.602,1123.73 843.613,1122.7 838.559,1117.89L833.446,1112.78C833.102,1112.96 832.757,1113.13 832.411,1113.3C829.318,1114.79 826.143,1116.09 822.896,1117.17C822.896,1117.17 824.411,1129.82 818.727,1136.54C815.883,1139.91 811.564,1141.9 807.119,1142.1C807.119,1142.1 802.191,1142.24 798.255,1142.33C793.341,1142.42 788.214,1142.59 783.952,1140.49C778.58,1137.84 774.855,1132.17 774.703,1126.11L774.702,1117.23C774.345,1117.12 773.99,1116.99 773.634,1116.87C770.384,1115.74 767.203,1114.4 764.126,1112.86C764.126,1112.86 758.624,1119.07 753.46,1121.26C747.856,1123.64 741.01,1122.32 736.415,1118.06C736.045,1117.7 736.425,1118.06 735.132,1116.81C730.53,1112.4 725.124,1108.44 722.217,1102.84C719.088,1096.82 720.178,1088.92 724.914,1083.93L730.027,1078.82C728.313,1075.41 726.847,1071.89 725.637,1068.27C725.637,1068.27 717.148,1069.19 711.136,1066.96C704.663,1064.56 700.813,1057.91 700.679,1050.55C700.541,1044.24 699.546,1037.72 701.369,1031.72C703.354,1025.18 709.717,1020.25 716.702,1020.08L725.583,1020.08C725.713,1019.68 725.847,1019.29 725.983,1018.89C727.113,1015.67 728.442,1012.53 729.968,1009.49C725.955,1005.82 721.943,1001.84 720.756,996.658C719.546,991.37 721.159,985.555 724.908,981.626C729.298,977.187 732.892,972.428 738.234,968.634C744.343,964.295 753.47,965.018 758.994,970.402L763.991,975.4C767.403,973.688 770.933,972.216 774.553,971.006C774.198,964.767 773.946,958.215 777.632,953.018C780.887,948.429 786.52,946.157 792.26,946.052C795.408,945.984 798.569,945.829 801.699,945.83ZM730.804,1057.32C734.42,1058.32 734.407,1059.66 735.454,1063.14C736.938,1068 738.971,1072.7 741.49,1077.09C741.49,1077.09 742.774,1080.52 741.357,1082.74C741.072,1083.18 740.966,1083.27 740.615,1083.66C737.98,1086.3 735.278,1088.87 732.712,1091.57C728.029,1096.62 738.173,1105.42 744.179,1110.36C747.962,1113.4 753.044,1108.43 758.656,1102.69C762.617,1098.67 768.807,1103.34 774.669,1105.63C776.932,1106.52 779.243,1107.27 781.587,1107.91C781.587,1107.91 785.421,1109.64 785.613,1113.17C785.614,1117.46 785.456,1121.76 785.617,1126.05C785.955,1132.91 799.253,1131.95 807.027,1131.17C812.564,1130.55 811.956,1121.24 811.833,1114.32C811.812,1112.72 811.808,1112.65 811.95,1112C812.859,1107.85 818.94,1107.22 823.952,1105.14C826.618,1104.04 829.208,1102.76 831.718,1101.32C831.718,1101.32 835.659,1099.84 838.289,1102.19C840.924,1104.83 843.493,1107.53 846.194,1110.1C851.269,1114.81 859.887,1104.91 864.999,1098.61C867.997,1094.83 863.137,1089.79 857.547,1084.38C856.678,1083.53 856.88,1083.99 856.086,1082.75C853.592,1078.85 858.09,1073.66 860.275,1068.07C861.151,1065.83 861.902,1063.54 862.534,1061.22C862.534,1061.22 864.274,1057.39 867.797,1057.2C872.073,1057.2 876.349,1057.3 880.624,1057.19C887.484,1056.94 886.701,1043.74 885.794,1035.78C885.725,1035.21 885.566,1034.66 885.328,1034.15C883.664,1030.56 878.397,1030.5 874.455,1030.7C872.335,1030.81 870.216,1030.96 868.094,1030.99C868.094,1030.99 866.954,1031 866.058,1030.7C862.659,1029.56 862.041,1024.81 860.603,1020.97C859.349,1017.63 857.83,1014.39 856.059,1011.29C856.059,1011.29 855.508,1010.34 855.328,1009.44C854.991,1007.74 855.036,1006.51 856.822,1004.52C859.457,1001.89 862.157,999.313 864.727,996.614C868.018,993.067 863.598,987.588 859.11,983.337C855.875,980.29 852.96,976.181 849.346,976.628C842.271,977.503 838.702,990.861 831.568,986.776C831.351,986.652 831.133,986.53 830.915,986.408C826.138,983.762 821.098,981.71 815.843,980.276C815.843,980.276 812.52,978.761 811.952,976.19C811.838,975.674 811.852,975.538 811.824,975.013C811.823,970.738 811.93,966.462 811.822,962.188C811.577,955.538 798.855,956.067 790.41,957.015C786.081,957.546 785.11,963.63 785.331,968.285C785.603,973.533 786.48,978.879 780.647,980.539C775.444,982.045 770.438,984.158 765.719,986.863C765.719,986.863 762.294,988.147 760.072,986.73C759.626,986.445 759.54,986.339 759.148,985.988C754.734,981.573 750.58,975.043 745.647,976.938C744.386,977.422 743.466,978.494 742.482,979.466C739.218,982.705 735.968,985.959 732.735,989.229C730.834,991.221 730.87,994.399 732.786,996.853C734.967,999.646 737.867,1001.81 740.422,1004.33C740.422,1004.33 741.228,1005.12 741.645,1005.96C742.668,1008.02 742.005,1010.09 740.551,1012.78C738.147,1017.28 736.249,1022.03 734.903,1026.97C734.903,1026.97 733.388,1030.29 730.817,1030.86C730.301,1030.97 730.165,1030.96 729.64,1030.99C725.366,1030.99 721.091,1030.88 716.818,1030.99C709.924,1031.25 710.888,1044.72 711.638,1052.38C712.137,1056.91 718.596,1057.57 723.181,1057.4C725.814,1057.31 729.364,1057.19 729.621,1057.2C730.018,1057.21 730.412,1057.26 730.804,1057.32ZM798.95,1008.1C815.506,1008.25 831.075,1021.1 834.113,1037.51C837.898,1057.94 821.101,1080.09 798.719,1080.09C781.623,1080.09 765.484,1066.32 763.071,1049.12C760.331,1029.58 775.893,1009.21 796.871,1008.14C797.409,1008.11 797.948,1008.1 798.487,1008.1C798.642,1008.1 798.796,1008.1 798.95,1008.1ZM798.556,1019.01C787.121,1019.12 776.441,1027.82 774.143,1039.04C771.822,1050.37 778.475,1062.92 789.244,1067.33C802.588,1072.78 819.914,1064.23 823.197,1049.61C826.446,1035.13 814.681,1018.96 798.556,1019.01Z" style="fill:rgb(218,67,89);fill-rule:nonzero;"/>
                </g>
            </g>
        </g>
    </g>
</svg>
