<?xml version="1.0" encoding="UTF-8" standalone="no"?>
<!DOCTYPE svg PUBLIC "-//W3C//DTD SVG 1.1//EN" "http://www.w3.org/Graphics/SVG/1.1/DTD/svg11.dtd">
<svg width="100%" height="100%" viewBox="0 0 181 181" version="1.1" xmlns="http://www.w3.org/2000/svg" xmlns:xlink="http://www.w3.org/1999/xlink" xml:space="preserve" xmlns:serif="http://www.serif.com/" style="fill-rule:evenodd;clip-rule:evenodd;stroke-linejoin:round;stroke-miterlimit:1.41421;">
    <g transform="matrix(1,0,0,1,-479.215,-1451.91)">
        <g id="Chart-Red" transform="matrix(1,0,0,1,-1410.58,1451.91)">
            <rect x="1889.79" y="0" width="180.113" height="180.112" style="fill:none;"/>
            <clipPath id="_clip1">
                <rect x="1889.79" y="0" width="180.113" height="180.112"/>
            </clipPath>
            <g clip-path="url(#_clip1)">
                <g transform="matrix(0.983982,0,0,0.983982,1415.99,-1188.19)">
                    <path d="M637.249,1242.08C630.71,1238.23 626.302,1230.41 627.812,1222.54C629.389,1214.32 637.03,1207.7 645.749,1207.54C645.988,1207.53 645.988,1207.53 646.226,1207.54C656.674,1207.73 665.804,1218 664.316,1228.63C663.094,1237.34 654.848,1244.55 645.988,1244.55C645.807,1244.55 645.628,1244.55 645.448,1244.54L622.863,1296.5C627.952,1300.48 631.166,1306.96 630.233,1313.63C629.012,1322.35 620.766,1329.55 611.905,1329.55C600.748,1329.55 591.232,1317.38 594.089,1306.14L543.167,1278.29C539.689,1282.06 534.73,1284.51 529.563,1284.51C529.312,1284.51 529.063,1284.51 528.814,1284.5L508.83,1356.09C515.093,1359.81 519.342,1367.12 518.285,1374.66C517.064,1383.37 508.819,1390.58 499.958,1390.58C487.711,1390.58 477.34,1375.98 483.376,1363.85C486.384,1357.8 492.827,1353.69 499.719,1353.57C499.958,1353.56 499.958,1353.56 500.196,1353.57C500.366,1353.57 500.536,1353.57 500.706,1353.58L520.715,1281.9C513.06,1277.15 508.502,1266.79 512.981,1257.78C515.987,1251.74 522.432,1247.63 529.324,1247.5C529.563,1247.5 529.563,1247.5 529.801,1247.5C540.24,1247.7 549.386,1257.91 547.89,1268.59C547.78,1269.38 547.612,1270.15 547.392,1270.91L598.17,1298.69C601.574,1294.97 606.494,1292.63 611.667,1292.54C611.905,1292.54 611.905,1292.54 612.144,1292.54C613.167,1292.56 614.178,1292.67 615.168,1292.88L637.249,1242.08Z" style="fill:rgb(177,177,177);"/>
                </g>
                <g transform="matrix(0.983982,0,0,0.983982,1415.99,-1188.19)">
                    <path d="M637.249,1242.08C630.71,1238.23 626.302,1230.41 627.812,1222.54C629.389,1214.32 637.03,1207.7 645.749,1207.54C645.988,1207.53 645.988,1207.53 646.226,1207.54C656.674,1207.73 665.804,1218 664.316,1228.63C663.094,1237.34 654.848,1244.55 645.988,1244.55C645.807,1244.55 645.628,1244.55 645.448,1244.54L622.863,1296.5C627.952,1300.48 631.166,1306.96 630.233,1313.63C629.012,1322.35 620.766,1329.55 611.905,1329.55C600.748,1329.55 591.232,1317.38 594.089,1306.14L543.167,1278.29C539.689,1282.06 534.73,1284.51 529.563,1284.51C529.312,1284.51 529.063,1284.51 528.814,1284.5L508.83,1356.09C515.093,1359.81 519.342,1367.12 518.285,1374.66C517.064,1383.37 508.819,1390.58 499.958,1390.58C487.711,1390.58 477.34,1375.98 483.376,1363.85C486.384,1357.8 492.827,1353.69 499.719,1353.57C499.958,1353.56 499.958,1353.56 500.196,1353.57C500.366,1353.57 500.536,1353.57 500.706,1353.58L520.715,1281.9C513.06,1277.15 508.502,1266.79 512.981,1257.78C515.987,1251.74 522.432,1247.63 529.324,1247.5C529.563,1247.5 529.563,1247.5 529.801,1247.5C540.24,1247.7 549.386,1257.91 547.89,1268.59C547.78,1269.38 547.612,1270.15 547.392,1270.91L598.17,1298.69C601.574,1294.97 606.494,1292.63 611.667,1292.54C611.905,1292.54 611.905,1292.54 612.144,1292.54C613.167,1292.56 614.178,1292.67 615.168,1292.88L637.249,1242.08Z" style="fill:rgb(218,67,89);"/>
                </g>
            </g>
        </g>
    </g>
</svg>
