<?xml version="1.0" encoding="UTF-8" standalone="no"?>
<!DOCTYPE svg PUBLIC "-//W3C//DTD SVG 1.1//EN" "http://www.w3.org/Graphics/SVG/1.1/DTD/svg11.dtd">
<svg width="100%" height="100%" viewBox="0 0 181 181" version="1.1" xmlns="http://www.w3.org/2000/svg" xmlns:xlink="http://www.w3.org/1999/xlink" xml:space="preserve" xmlns:serif="http://www.serif.com/" style="fill-rule:evenodd;clip-rule:evenodd;stroke-linejoin:round;stroke-miterlimit:1.41421;">
    <g transform="matrix(1,0,0,1,-238.211,-1451.91)">
        <g id="Lightbulb-Red" transform="matrix(1,0,0,1,-1651.58,1451.91)">
            <rect x="1889.79" y="0" width="180.113" height="180.112" style="fill:none;"/>
            <clipPath id="_clip1">
                <rect x="1889.79" y="0" width="180.113" height="180.112"/>
            </clipPath>
            <g clip-path="url(#_clip1)">
                <g transform="matrix(1.01928,0,0,1.01928,-40.9508,-9.47078)">
                    <g transform="matrix(0.989535,0,0,0.989535,1657.92,-1192.25)">
                        <path d="M355.191,1214.25C358.074,1214.31 361.628,1216.23 360.642,1219.61L353.447,1239.38C352.954,1240.52 352.041,1241.52 350.74,1241.64C349.257,1241.78 347.935,1241.66 345.953,1240.06C344.791,1239.12 343.902,1237.79 344.389,1236.09L351.585,1216.32C352.182,1214.94 353.505,1214.23 355.191,1214.25Z" style="fill:rgb(218,67,89);fill-rule:nonzero;"/>
                    </g>
                    <g transform="matrix(0.989535,0,0,0.989535,1657.92,-1192.25)">
                        <path d="M301.58,1214.49C303.002,1214.53 304.374,1215.21 304.97,1216.57L312.16,1236.33C313.427,1240.54 305.057,1243.87 303.161,1239.61L295.969,1219.86C295.5,1218.29 296.437,1216.62 297.796,1215.64C297.796,1215.64 299.73,1214.46 301.58,1214.49Z" style="fill:rgb(218,67,89);fill-rule:nonzero;"/>
                    </g>
                    <g transform="matrix(0.989535,0,0,0.989535,1657.92,-1192.25)">
                        <path d="M264.421,1236.31C265.199,1236.34 265.941,1236.63 266.529,1237.15L281.42,1252.04C284.371,1255.35 278.074,1261.87 274.613,1258.86L259.719,1243.97C258.632,1242.75 258.78,1240.82 259.607,1239.36C259.607,1239.36 261.751,1236.27 264.421,1236.31Z" style="fill:rgb(218,67,89);fill-rule:nonzero;"/>
                    </g>
                    <g transform="matrix(0.989535,0,0,0.989535,1657.92,-1192.25)">
                        <path d="M392.323,1236.04C393.372,1236.09 394.726,1236.84 394.726,1236.84C395.566,1237.38 395.061,1236.49 396.609,1238.58C397.67,1240.02 398.231,1242.11 396.832,1243.7L381.967,1258.56C381.038,1259.39 379.789,1259.91 378.56,1259.47C377.16,1258.97 376.011,1258.31 374.895,1256.02C374.242,1254.68 374.008,1253.09 375.158,1251.77L390.027,1236.9C390.67,1236.33 391.305,1236.02 392.323,1236.04Z" style="fill:rgb(218,67,89);fill-rule:nonzero;"/>
                    </g>
                    <g transform="matrix(0.989535,0,0,0.989535,1657.92,-1192.25)">
                        <path d="M328.952,1243.54C349.349,1243.74 369.033,1256.26 377.764,1274.65C389.011,1298.35 380.697,1329.48 357.321,1344.12L357.213,1344.19C357.213,1355.01 357.546,1365.54 357.2,1376.44C356.819,1385.04 349.316,1392.62 340.432,1392.78C332.545,1392.83 324.657,1392.83 316.77,1392.78C307.96,1392.62 300.047,1385.01 299.989,1375.8L299.989,1344.19C299.697,1344.01 299.407,1343.82 299.118,1343.63C281.563,1332.23 271.565,1310.17 274.889,1289.32C278.862,1264.41 301.656,1243.96 327.9,1243.55C328.25,1243.54 328.601,1243.54 328.952,1243.54ZM346.441,1373.23L310.719,1373.23C310.731,1374.14 310.746,1375.04 310.763,1375.95C310.863,1379.11 313.63,1381.91 316.825,1382.01C324.674,1382.16 332.527,1382.16 340.377,1382.01C343.582,1381.91 346.419,1379.14 346.441,1375.77L346.441,1373.23ZM310.668,1366.88L346.441,1366.88L346.441,1358.65L310.679,1358.65C310.666,1361.4 310.66,1364.14 310.668,1366.88ZM346.441,1352.3L346.441,1341.09C346.613,1337.55 347.956,1337.16 350.848,1335.45C369.221,1324.47 377.328,1299.16 368.146,1279.51C361.234,1264.72 345.52,1254.57 329.166,1254.32C328.883,1254.31 328.601,1254.31 328.318,1254.31C307.571,1254.51 288.161,1271.21 285.368,1292.1C283.058,1309.39 291.999,1327.62 307.773,1336.26C307.773,1336.26 310.236,1337.9 310.659,1340.04C310.749,1340.5 310.738,1340.62 310.761,1341.09C310.761,1344.82 310.738,1348.56 310.715,1352.3L346.441,1352.3Z" style="fill:rgb(218,67,89);fill-rule:nonzero;"/>
                    </g>
                </g>
            </g>
        </g>
    </g>
</svg>
