<?xml version="1.0" encoding="UTF-8" standalone="no"?>
<!DOCTYPE svg PUBLIC "-//W3C//DTD SVG 1.1//EN" "http://www.w3.org/Graphics/SVG/1.1/DTD/svg11.dtd">
<svg width="100%" height="100%" viewBox="0 0 181 181" version="1.1" xmlns="http://www.w3.org/2000/svg" xmlns:xlink="http://www.w3.org/1999/xlink" xml:space="preserve" xmlns:serif="http://www.serif.com/" style="fill-rule:evenodd;clip-rule:evenodd;stroke-linejoin:round;stroke-miterlimit:1.41421;">
    <g transform="matrix(1,0,0,1,0,-1212.71)">
        <g id="Plus" transform="matrix(1,0,0,1,-1889.79,1212.71)">
            <rect x="1889.79" y="0" width="180.113" height="180.112" style="fill:none;"/>
            <g transform="matrix(1,0,0,1,1889.79,-1212.71)">
                <path d="M102.304,1315.03C102.304,1315.03 102.628,1364.85 102.304,1376.25C102.234,1378.71 101.684,1381.18 100.36,1383.38C96.585,1389.66 86.561,1391.41 81.22,1385.41C79.004,1382.91 77.934,1379.55 77.809,1376.25L77.809,1315.03L16.561,1315.03C12.392,1314.87 7.88,1312.94 5.51,1309.17C2.576,1304.51 3.017,1297.86 7.392,1293.95C9.88,1291.73 13.243,1290.66 16.558,1290.53L77.809,1290.53C77.809,1290.53 77.829,1228.77 77.842,1228.52C78.215,1222.28 83.24,1216.57 89.921,1216.31C90.106,1216.31 90.29,1216.3 90.475,1216.31C96.935,1216.44 102.048,1222.51 102.304,1229.28L102.304,1290.53C102.304,1290.53 152.133,1290.2 163.526,1290.53C165.99,1290.6 168.465,1291.15 170.662,1292.47C176.942,1296.25 178.609,1306.34 172.685,1311.61C170.194,1313.83 166.832,1314.9 163.532,1315.03L102.304,1315.03Z" style="fill:rgb(177,177,177);fill-rule:nonzero;"/>
            </g>
        </g>
    </g>
</svg>
